<svg width="64" height="64" viewBox="0 0 64 64" fill="none" xmlns="http://www.w3.org/2000/svg">
<path fill-rule="evenodd" clip-rule="evenodd" d="M40.764 54.3519V54.3199H40.74L40.764 54.3519ZM38.64 51.5199H40.764V44.8279H44.792V50.2919H51.528V44.8279V43.2999V33.9239H39.324V39.3759H34.068V45.4239L38.64 51.5199ZM29.96 39.9466V33.9239H25.443L29.96 39.9466ZM21.537 28.7159H28.788V28.5999V23.3999V8.14794V2.83594H23.476H8.16796H3.02396H2.85596V3.80794L3.02396 4.03194L6.11095 8.14794L8.16796 10.8906V8.14794H23.476V23.3999H17.55L21.537 28.7159ZM14.838 19.7839H19.068V12.5519H11.836V15.7813L14.838 19.7839ZM50.256 2.83594H35.34V8.14794V13.5999H40.512V8.14794H50.252V17.6679H40.708V23.2599H35.372V28.5959H40.708V24.4999H46.052V28.5959H55.764V23.0919H61.144V13.5999H55.924V8.25594H61.144V2.83594H55.724V8.14794H50.256V2.83594ZM55.724 18.1799H50.256V23.0879H55.724V18.1799ZM61.144 33.9239H54.448V40.6199H61.144V33.9239ZM55.66 55.7559H50.176V61.1679H61.144V56.8999V55.7559V50.2919H55.66V55.7559Z" fill="#01BC8D"/>
</svg>
